<mxfile host="65bd71144e">
    <diagram id="qa-SkBQR2cakCYE9J4Vw" name="Page-1">
        <mxGraphModel dx="1600" dy="988" grid="1" gridSize="10" guides="1" tooltips="1" connect="1" arrows="1" fold="1" page="1" pageScale="1" pageWidth="850" pageHeight="1100" math="0" shadow="0">
            <root>
                <mxCell id="0"/>
                <mxCell id="1" parent="0"/>
                <mxCell id="99" value="integrantes" style="ellipse;whiteSpace=wrap;html=1;" parent="1" vertex="1">
                    <mxGeometry x="510" y="945" width="105" height="70" as="geometry"/>
                </mxCell>
                <mxCell id="2" value="" style="ellipse;whiteSpace=wrap;html=1;" parent="1" vertex="1">
                    <mxGeometry x="20" y="120" width="100" height="60" as="geometry"/>
                </mxCell>
                <mxCell id="3" value="" style="rounded=0;whiteSpace=wrap;html=1;" parent="1" vertex="1">
                    <mxGeometry x="7.5" y="40" width="125" height="60" as="geometry"/>
                </mxCell>
                <mxCell id="4" value="" style="rhombus;whiteSpace=wrap;html=1;" parent="1" vertex="1">
                    <mxGeometry x="20" y="220" width="100" height="80" as="geometry"/>
                </mxCell>
                <mxCell id="5" value="" style="ellipse;whiteSpace=wrap;html=1;aspect=fixed;" parent="1" vertex="1">
                    <mxGeometry x="40" y="320" width="60" height="60" as="geometry"/>
                </mxCell>
                <mxCell id="6" value="PARTICIPANTES" style="rounded=0;whiteSpace=wrap;html=1;" parent="1" vertex="1">
                    <mxGeometry x="617.5" y="340" width="125" height="60" as="geometry"/>
                </mxCell>
                <mxCell id="7" value="ACESSO" style="rounded=0;whiteSpace=wrap;html=1;" parent="1" vertex="1">
                    <mxGeometry x="617.5" y="80" width="125" height="60" as="geometry"/>
                </mxCell>
                <mxCell id="8" value="PASSAPORTE" style="rounded=0;whiteSpace=wrap;html=1;" parent="1" vertex="1">
                    <mxGeometry x="445" y="220" width="125" height="60" as="geometry"/>
                </mxCell>
                <mxCell id="9" value="EVENTO" style="rounded=0;whiteSpace=wrap;html=1;" parent="1" vertex="1">
                    <mxGeometry x="617.5" y="580" width="125" height="60" as="geometry"/>
                </mxCell>
                <mxCell id="10" value="BANDA" style="rounded=0;whiteSpace=wrap;html=1;" parent="1" vertex="1">
                    <mxGeometry x="967.5" y="870" width="125" height="60" as="geometry"/>
                </mxCell>
                <mxCell id="11" value="ROADIE" style="rounded=0;whiteSpace=wrap;html=1;" parent="1" vertex="1">
                    <mxGeometry x="617.5" y="870" width="125" height="60" as="geometry"/>
                </mxCell>
                <mxCell id="12" value="PALCO" style="rounded=0;whiteSpace=wrap;html=1;" parent="1" vertex="1">
                    <mxGeometry x="967.5" y="580" width="125" height="60" as="geometry"/>
                </mxCell>
                <mxCell id="13" value="EQUIPAMENTO" style="rounded=0;whiteSpace=wrap;html=1;" parent="1" vertex="1">
                    <mxGeometry x="967.5" y="260" width="125" height="60" as="geometry"/>
                </mxCell>
                <mxCell id="14" value="TABELA_HORARIO" style="rounded=0;whiteSpace=wrap;html=1;" parent="1" vertex="1">
                    <mxGeometry x="1205" y="730" width="125" height="60" as="geometry"/>
                </mxCell>
                <mxCell id="15" value="AREA_ESTANDE" style="rounded=0;whiteSpace=wrap;html=1;" parent="1" vertex="1">
                    <mxGeometry x="237.5" y="580" width="125" height="60" as="geometry"/>
                </mxCell>
                <mxCell id="16" value="ESTANDE" style="rounded=0;whiteSpace=wrap;html=1;" parent="1" vertex="1">
                    <mxGeometry x="237.5" y="870" width="125" height="60" as="geometry"/>
                </mxCell>
                <mxCell id="17" value="possui" style="rhombus;whiteSpace=wrap;html=1;" parent="1" vertex="1">
                    <mxGeometry x="630" y="210" width="100" height="80" as="geometry"/>
                </mxCell>
                <mxCell id="18" value="" style="endArrow=none;html=1;" parent="1" source="6" target="17" edge="1">
                    <mxGeometry width="50" height="50" relative="1" as="geometry">
                        <mxPoint x="407.5" y="420" as="sourcePoint"/>
                        <mxPoint x="457.5" y="370" as="targetPoint"/>
                    </mxGeometry>
                </mxCell>
                <mxCell id="19" value="" style="endArrow=none;html=1;" parent="1" source="17" target="7" edge="1">
                    <mxGeometry width="50" height="50" relative="1" as="geometry">
                        <mxPoint x="687.5" y="230" as="sourcePoint"/>
                        <mxPoint x="690" y="300" as="targetPoint"/>
                    </mxGeometry>
                </mxCell>
                <mxCell id="21" value="possui" style="rhombus;whiteSpace=wrap;html=1;" parent="1" vertex="1">
                    <mxGeometry x="457.5" y="330" width="100" height="80" as="geometry"/>
                </mxCell>
                <mxCell id="22" value="" style="endArrow=none;html=1;" parent="1" source="6" target="21" edge="1">
                    <mxGeometry width="50" height="50" relative="1" as="geometry">
                        <mxPoint x="690" y="350" as="sourcePoint"/>
                        <mxPoint x="690" y="270" as="targetPoint"/>
                    </mxGeometry>
                </mxCell>
                <mxCell id="23" value="" style="endArrow=none;html=1;" parent="1" source="21" target="8" edge="1">
                    <mxGeometry width="50" height="50" relative="1" as="geometry">
                        <mxPoint x="627.5" y="380" as="sourcePoint"/>
                        <mxPoint x="567.5" y="380" as="targetPoint"/>
                    </mxGeometry>
                </mxCell>
                <mxCell id="24" value="participa" style="rhombus;whiteSpace=wrap;html=1;" parent="1" vertex="1">
                    <mxGeometry x="630" y="450" width="100" height="80" as="geometry"/>
                </mxCell>
                <mxCell id="25" value="" style="endArrow=none;html=1;" parent="1" source="6" target="24" edge="1">
                    <mxGeometry width="50" height="50" relative="1" as="geometry">
                        <mxPoint x="690" y="350" as="sourcePoint"/>
                        <mxPoint x="680" y="460" as="targetPoint"/>
                    </mxGeometry>
                </mxCell>
                <mxCell id="26" value="" style="endArrow=none;html=1;" parent="1" source="9" target="24" edge="1">
                    <mxGeometry width="50" height="50" relative="1" as="geometry">
                        <mxPoint x="700" y="340" as="sourcePoint"/>
                        <mxPoint x="700" y="260" as="targetPoint"/>
                    </mxGeometry>
                </mxCell>
                <mxCell id="27" value="possui" style="rhombus;whiteSpace=wrap;html=1;" parent="1" vertex="1">
                    <mxGeometry x="807.5" y="570" width="100" height="80" as="geometry"/>
                </mxCell>
                <mxCell id="28" value="" style="endArrow=none;html=1;" parent="1" source="9" target="27" edge="1">
                    <mxGeometry width="50" height="50" relative="1" as="geometry">
                        <mxPoint x="690" y="590" as="sourcePoint"/>
                        <mxPoint x="690" y="530" as="targetPoint"/>
                    </mxGeometry>
                </mxCell>
                <mxCell id="29" value="" style="endArrow=none;html=1;" parent="1" source="27" target="12" edge="1">
                    <mxGeometry width="50" height="50" relative="1" as="geometry">
                        <mxPoint x="700" y="600" as="sourcePoint"/>
                        <mxPoint x="700" y="540" as="targetPoint"/>
                    </mxGeometry>
                </mxCell>
                <mxCell id="30" value="traz" style="rhombus;whiteSpace=wrap;html=1;" parent="1" vertex="1">
                    <mxGeometry x="807.5" y="860" width="100" height="80" as="geometry"/>
                </mxCell>
                <mxCell id="31" value="" style="endArrow=none;html=1;" parent="1" source="11" target="30" edge="1">
                    <mxGeometry width="50" height="50" relative="1" as="geometry">
                        <mxPoint x="752.5" y="620" as="sourcePoint"/>
                        <mxPoint x="817.5" y="620" as="targetPoint"/>
                    </mxGeometry>
                </mxCell>
                <mxCell id="32" value="" style="endArrow=none;html=1;" parent="1" source="10" target="30" edge="1">
                    <mxGeometry width="50" height="50" relative="1" as="geometry">
                        <mxPoint x="762.5" y="630" as="sourcePoint"/>
                        <mxPoint x="827.5" y="630" as="targetPoint"/>
                    </mxGeometry>
                </mxCell>
                <mxCell id="33" value="alocada" style="rhombus;whiteSpace=wrap;html=1;" parent="1" vertex="1">
                    <mxGeometry x="1217.5" y="860" width="100" height="80" as="geometry"/>
                </mxCell>
                <mxCell id="34" value="" style="endArrow=none;html=1;" parent="1" source="33" target="10" edge="1">
                    <mxGeometry width="50" height="50" relative="1" as="geometry">
                        <mxPoint x="977.5" y="910" as="sourcePoint"/>
                        <mxPoint x="917.5" y="910" as="targetPoint"/>
                    </mxGeometry>
                </mxCell>
                <mxCell id="35" value="possui" style="rhombus;whiteSpace=wrap;html=1;" parent="1" vertex="1">
                    <mxGeometry x="1217.5" y="570" width="100" height="80" as="geometry"/>
                </mxCell>
                <mxCell id="36" value="" style="endArrow=none;html=1;" parent="1" source="14" target="33" edge="1">
                    <mxGeometry width="50" height="50" relative="1" as="geometry">
                        <mxPoint x="1227.5" y="910" as="sourcePoint"/>
                        <mxPoint x="1102.5" y="910" as="targetPoint"/>
                    </mxGeometry>
                </mxCell>
                <mxCell id="37" value="" style="endArrow=none;html=1;" parent="1" source="35" target="14" edge="1">
                    <mxGeometry width="50" height="50" relative="1" as="geometry">
                        <mxPoint x="1277.5" y="800" as="sourcePoint"/>
                        <mxPoint x="1277.5" y="870" as="targetPoint"/>
                    </mxGeometry>
                </mxCell>
                <mxCell id="38" value="" style="endArrow=none;html=1;" parent="1" source="12" target="35" edge="1">
                    <mxGeometry width="50" height="50" relative="1" as="geometry">
                        <mxPoint x="1277.5" y="660" as="sourcePoint"/>
                        <mxPoint x="1277.5" y="740" as="targetPoint"/>
                    </mxGeometry>
                </mxCell>
                <mxCell id="39" value="possui" style="rhombus;whiteSpace=wrap;html=1;" parent="1" vertex="1">
                    <mxGeometry x="980" y="410" width="100" height="80" as="geometry"/>
                </mxCell>
                <mxCell id="40" value="" style="endArrow=none;html=1;" parent="1" source="39" target="12" edge="1">
                    <mxGeometry width="50" height="50" relative="1" as="geometry">
                        <mxPoint x="1102.5" y="620" as="sourcePoint"/>
                        <mxPoint x="1227.5" y="620" as="targetPoint"/>
                    </mxGeometry>
                </mxCell>
                <mxCell id="41" value="" style="endArrow=none;html=1;" parent="1" source="13" target="39" edge="1">
                    <mxGeometry width="50" height="50" relative="1" as="geometry">
                        <mxPoint x="1112.5" y="630" as="sourcePoint"/>
                        <mxPoint x="1237.5" y="630" as="targetPoint"/>
                    </mxGeometry>
                </mxCell>
                <mxCell id="43" value="tem" style="rhombus;whiteSpace=wrap;html=1;" parent="1" vertex="1">
                    <mxGeometry x="250" y="710" width="100" height="80" as="geometry"/>
                </mxCell>
                <mxCell id="44" value="possui" style="rhombus;whiteSpace=wrap;html=1;" parent="1" vertex="1">
                    <mxGeometry x="442.5" y="570" width="100" height="80" as="geometry"/>
                </mxCell>
                <mxCell id="46" value="" style="endArrow=none;html=1;" parent="1" source="44" target="9" edge="1">
                    <mxGeometry width="50" height="50" relative="1" as="geometry">
                        <mxPoint x="752.5" y="620" as="sourcePoint"/>
                        <mxPoint x="817.5" y="620" as="targetPoint"/>
                    </mxGeometry>
                </mxCell>
                <mxCell id="47" value="" style="endArrow=none;html=1;" parent="1" source="15" target="44" edge="1">
                    <mxGeometry width="50" height="50" relative="1" as="geometry">
                        <mxPoint x="552.5" y="620" as="sourcePoint"/>
                        <mxPoint x="497.5" y="620" as="targetPoint"/>
                    </mxGeometry>
                </mxCell>
                <mxCell id="48" value="" style="endArrow=none;html=1;" parent="1" source="43" target="15" edge="1">
                    <mxGeometry width="50" height="50" relative="1" as="geometry">
                        <mxPoint x="562.5" y="630" as="sourcePoint"/>
                        <mxPoint x="637.5" y="630" as="targetPoint"/>
                    </mxGeometry>
                </mxCell>
                <mxCell id="49" value="" style="endArrow=none;html=1;" parent="1" source="16" target="43" edge="1">
                    <mxGeometry width="50" height="50" relative="1" as="geometry">
                        <mxPoint x="572.5" y="640" as="sourcePoint"/>
                        <mxPoint x="647.5" y="640" as="targetPoint"/>
                    </mxGeometry>
                </mxCell>
                <mxCell id="50" value="&lt;u&gt;id_participante&lt;/u&gt;" style="ellipse;whiteSpace=wrap;html=1;" parent="1" vertex="1">
                    <mxGeometry x="787.5" y="430" width="100" height="60" as="geometry"/>
                </mxCell>
                <mxCell id="51" value="nome" style="ellipse;whiteSpace=wrap;html=1;" parent="1" vertex="1">
                    <mxGeometry x="787.5" y="320" width="100" height="60" as="geometry"/>
                </mxCell>
                <mxCell id="52" value="" style="endArrow=none;html=1;" parent="1" source="6" target="50" edge="1">
                    <mxGeometry width="50" height="50" relative="1" as="geometry">
                        <mxPoint x="690" y="410" as="sourcePoint"/>
                        <mxPoint x="690" y="470" as="targetPoint"/>
                    </mxGeometry>
                </mxCell>
                <mxCell id="53" value="0,1" style="text;html=1;align=center;verticalAlign=middle;resizable=0;points=[];autosize=1;strokeColor=none;fillColor=none;" parent="1" vertex="1">
                    <mxGeometry x="502.5" y="280" width="40" height="30" as="geometry"/>
                </mxCell>
                <mxCell id="54" value="1,1" style="text;html=1;align=center;verticalAlign=middle;resizable=0;points=[];autosize=1;strokeColor=none;fillColor=none;" parent="1" vertex="1">
                    <mxGeometry x="577.5" y="335" width="40" height="30" as="geometry"/>
                </mxCell>
                <mxCell id="55" value="1,1" style="text;html=1;align=center;verticalAlign=middle;resizable=0;points=[];autosize=1;strokeColor=none;fillColor=none;" parent="1" vertex="1">
                    <mxGeometry x="677.5" y="140" width="40" height="30" as="geometry"/>
                </mxCell>
                <mxCell id="56" value="0, n" style="text;html=1;align=center;verticalAlign=middle;resizable=0;points=[];autosize=1;strokeColor=none;fillColor=none;" parent="1" vertex="1">
                    <mxGeometry x="677.5" y="310" width="40" height="30" as="geometry"/>
                </mxCell>
                <mxCell id="57" value="0, n" style="text;html=1;align=center;verticalAlign=middle;resizable=0;points=[];autosize=1;strokeColor=none;fillColor=none;" parent="1" vertex="1">
                    <mxGeometry x="677.5" y="550" width="40" height="30" as="geometry"/>
                </mxCell>
                <mxCell id="58" value="0, m" style="text;html=1;align=center;verticalAlign=middle;resizable=0;points=[];autosize=1;strokeColor=none;fillColor=none;" parent="1" vertex="1">
                    <mxGeometry x="672.5" y="400" width="50" height="30" as="geometry"/>
                </mxCell>
                <mxCell id="59" value="0, m" style="text;html=1;align=center;verticalAlign=middle;resizable=0;points=[];autosize=1;strokeColor=none;fillColor=none;" parent="1" vertex="1">
                    <mxGeometry x="362.5" y="580" width="50" height="30" as="geometry"/>
                </mxCell>
                <mxCell id="60" value="1,1" style="text;html=1;align=center;verticalAlign=middle;resizable=0;points=[];autosize=1;strokeColor=none;fillColor=none;" parent="1" vertex="1">
                    <mxGeometry x="572.5" y="580" width="40" height="30" as="geometry"/>
                </mxCell>
                <mxCell id="61" value="0,n" style="text;html=1;align=center;verticalAlign=middle;resizable=0;points=[];autosize=1;strokeColor=none;fillColor=none;" parent="1" vertex="1">
                    <mxGeometry x="297.5" y="840" width="40" height="30" as="geometry"/>
                </mxCell>
                <mxCell id="62" value="1,1" style="text;html=1;align=center;verticalAlign=middle;resizable=0;points=[];autosize=1;strokeColor=none;fillColor=none;" parent="1" vertex="1">
                    <mxGeometry x="297.5" y="640" width="40" height="30" as="geometry"/>
                </mxCell>
                <mxCell id="63" value="0,1" style="text;html=1;align=center;verticalAlign=middle;resizable=0;points=[];autosize=1;strokeColor=none;fillColor=none;" parent="1" vertex="1">
                    <mxGeometry x="742.5" y="870" width="40" height="30" as="geometry"/>
                </mxCell>
                <mxCell id="64" value="1,1" style="text;html=1;align=center;verticalAlign=middle;resizable=0;points=[];autosize=1;strokeColor=none;fillColor=none;" parent="1" vertex="1">
                    <mxGeometry x="927.5" y="870" width="40" height="30" as="geometry"/>
                </mxCell>
                <mxCell id="65" value="0, n" style="text;html=1;align=center;verticalAlign=middle;resizable=0;points=[];autosize=1;strokeColor=none;fillColor=none;" parent="1" vertex="1">
                    <mxGeometry x="1267.5" y="790" width="40" height="30" as="geometry"/>
                </mxCell>
                <mxCell id="66" value="0, m" style="text;html=1;align=center;verticalAlign=middle;resizable=0;points=[];autosize=1;strokeColor=none;fillColor=none;" parent="1" vertex="1">
                    <mxGeometry x="1087.5" y="870" width="50" height="30" as="geometry"/>
                </mxCell>
                <mxCell id="67" value="1, m" style="text;html=1;align=center;verticalAlign=middle;resizable=0;points=[];autosize=1;strokeColor=none;fillColor=none;" parent="1" vertex="1">
                    <mxGeometry x="1092.5" y="580" width="50" height="30" as="geometry"/>
                </mxCell>
                <mxCell id="68" value="1, n" style="text;html=1;align=center;verticalAlign=middle;resizable=0;points=[];autosize=1;strokeColor=none;fillColor=none;" parent="1" vertex="1">
                    <mxGeometry x="1272.5" y="700" width="40" height="30" as="geometry"/>
                </mxCell>
                <mxCell id="69" value="0, m" style="text;html=1;align=center;verticalAlign=middle;resizable=0;points=[];autosize=1;strokeColor=none;fillColor=none;" parent="1" vertex="1">
                    <mxGeometry x="1027.5" y="320" width="50" height="30" as="geometry"/>
                </mxCell>
                <mxCell id="70" value="1,1" style="text;html=1;align=center;verticalAlign=middle;resizable=0;points=[];autosize=1;strokeColor=none;fillColor=none;" parent="1" vertex="1">
                    <mxGeometry x="1032.5" y="550" width="40" height="30" as="geometry"/>
                </mxCell>
                <mxCell id="71" value="" style="endArrow=none;html=1;" parent="1" source="6" target="51" edge="1">
                    <mxGeometry width="50" height="50" relative="1" as="geometry">
                        <mxPoint x="742.5498589376464" y="410" as="sourcePoint"/>
                        <mxPoint x="811.3479096486994" y="449.2758717731399" as="targetPoint"/>
                    </mxGeometry>
                </mxCell>
                <mxCell id="73" value="nivel_de_acesso" style="ellipse;whiteSpace=wrap;html=1;" parent="1" vertex="1">
                    <mxGeometry x="792.5" y="140" width="100" height="60" as="geometry"/>
                </mxCell>
                <mxCell id="74" value="&lt;u&gt;id_nivel&lt;/u&gt;" style="ellipse;whiteSpace=wrap;html=1;" parent="1" vertex="1">
                    <mxGeometry x="750" y="40" width="100" height="60" as="geometry"/>
                </mxCell>
                <mxCell id="75" value="" style="endArrow=none;html=1;" parent="1" source="74" target="7" edge="1">
                    <mxGeometry width="50" height="50" relative="1" as="geometry">
                        <mxPoint x="752.5" y="402.0748763265178" as="sourcePoint"/>
                        <mxPoint x="798.5902108280065" y="396.2305463913367" as="targetPoint"/>
                    </mxGeometry>
                </mxCell>
                <mxCell id="76" value="" style="endArrow=none;html=1;" parent="1" source="73" target="7" edge="1">
                    <mxGeometry width="50" height="50" relative="1" as="geometry">
                        <mxPoint x="762.5" y="412.0748763265178" as="sourcePoint"/>
                        <mxPoint x="808.5902108280065" y="406.2305463913367" as="targetPoint"/>
                    </mxGeometry>
                </mxCell>
                <mxCell id="77" value="&lt;u&gt;id_passaporte&lt;/u&gt;" style="ellipse;whiteSpace=wrap;html=1;" parent="1" vertex="1">
                    <mxGeometry x="362.5" y="140" width="100" height="60" as="geometry"/>
                </mxCell>
                <mxCell id="78" value="data_de_&lt;br&gt;adquirição" style="ellipse;whiteSpace=wrap;html=1;" parent="1" vertex="1">
                    <mxGeometry x="487.5" y="125" width="100" height="60" as="geometry"/>
                </mxCell>
                <mxCell id="79" value="" style="endArrow=none;html=1;" parent="1" source="8" target="77" edge="1">
                    <mxGeometry width="50" height="50" relative="1" as="geometry">
                        <mxPoint x="716.6239513599726" y="49.281669415458964" as="sourcePoint"/>
                        <mxPoint x="701.25" y="90" as="targetPoint"/>
                    </mxGeometry>
                </mxCell>
                <mxCell id="80" value="" style="endArrow=none;html=1;" parent="1" source="8" target="78" edge="1">
                    <mxGeometry width="50" height="50" relative="1" as="geometry">
                        <mxPoint x="726.6239513599726" y="59.281669415458964" as="sourcePoint"/>
                        <mxPoint x="711.25" y="100" as="targetPoint"/>
                    </mxGeometry>
                </mxCell>
                <mxCell id="81" value="&lt;u&gt;id_evento&lt;/u&gt;" style="ellipse;whiteSpace=wrap;html=1;" parent="1" vertex="1">
                    <mxGeometry x="517.5" y="490" width="100" height="60" as="geometry"/>
                </mxCell>
                <mxCell id="82" value="data" style="ellipse;whiteSpace=wrap;html=1;" parent="1" vertex="1">
                    <mxGeometry x="557.5" y="660" width="100" height="60" as="geometry"/>
                </mxCell>
                <mxCell id="83" value="inicio" style="ellipse;whiteSpace=wrap;html=1;" parent="1" vertex="1">
                    <mxGeometry x="477.5" y="730" width="100" height="60" as="geometry"/>
                </mxCell>
                <mxCell id="84" value="fim" style="ellipse;whiteSpace=wrap;html=1;" parent="1" vertex="1">
                    <mxGeometry x="617.5" y="740" width="100" height="60" as="geometry"/>
                </mxCell>
                <mxCell id="85" value="" style="endArrow=none;html=1;" parent="1" source="81" target="9" edge="1">
                    <mxGeometry width="50" height="50" relative="1" as="geometry">
                        <mxPoint x="742.5498589376464" y="390" as="sourcePoint"/>
                        <mxPoint x="811.3479096486994" y="429.2758717731399" as="targetPoint"/>
                    </mxGeometry>
                </mxCell>
                <mxCell id="86" value="" style="endArrow=none;html=1;" parent="1" source="82" target="9" edge="1">
                    <mxGeometry width="50" height="50" relative="1" as="geometry">
                        <mxPoint x="607.5" y="554" as="sourcePoint"/>
                        <mxPoint x="652.5" y="590" as="targetPoint"/>
                    </mxGeometry>
                </mxCell>
                <mxCell id="87" value="" style="endArrow=none;html=1;" parent="1" source="82" target="84" edge="1">
                    <mxGeometry width="50" height="50" relative="1" as="geometry">
                        <mxPoint x="641.2574457367559" y="673.6028380702714" as="sourcePoint"/>
                        <mxPoint x="662.8125" y="650" as="targetPoint"/>
                    </mxGeometry>
                </mxCell>
                <mxCell id="88" value="" style="endArrow=none;html=1;" parent="1" source="83" target="82" edge="1">
                    <mxGeometry width="50" height="50" relative="1" as="geometry">
                        <mxPoint x="638.0182338664131" y="727.3576451552171" as="sourcePoint"/>
                        <mxPoint x="656.9817661335469" y="752.6423548447292" as="targetPoint"/>
                    </mxGeometry>
                </mxCell>
                <mxCell id="89" value="&lt;u&gt;local&lt;/u&gt;" style="ellipse;whiteSpace=wrap;html=1;" parent="1" vertex="1">
                    <mxGeometry x="250" y="490" width="100" height="60" as="geometry"/>
                </mxCell>
                <mxCell id="90" value="" style="endArrow=none;html=1;" parent="1" source="89" target="15" edge="1">
                    <mxGeometry width="50" height="50" relative="1" as="geometry">
                        <mxPoint x="372.5" y="620" as="sourcePoint"/>
                        <mxPoint x="452.5" y="620" as="targetPoint"/>
                    </mxGeometry>
                </mxCell>
                <mxCell id="91" value="&lt;u&gt;id_estande&lt;/u&gt;" style="ellipse;whiteSpace=wrap;html=1;" parent="1" vertex="1">
                    <mxGeometry x="362.5" y="780" width="100" height="60" as="geometry"/>
                </mxCell>
                <mxCell id="92" value="nome" style="ellipse;whiteSpace=wrap;html=1;" parent="1" vertex="1">
                    <mxGeometry x="392.5" y="880" width="100" height="60" as="geometry"/>
                </mxCell>
                <mxCell id="93" value="finalidade" style="ellipse;whiteSpace=wrap;html=1;" parent="1" vertex="1">
                    <mxGeometry x="150" y="780" width="100" height="60" as="geometry"/>
                </mxCell>
                <mxCell id="94" value="" style="endArrow=none;html=1;" parent="1" source="91" target="16" edge="1">
                    <mxGeometry width="50" height="50" relative="1" as="geometry">
                        <mxPoint x="372.5" y="620" as="sourcePoint"/>
                        <mxPoint x="452.5" y="620" as="targetPoint"/>
                    </mxGeometry>
                </mxCell>
                <mxCell id="95" value="" style="endArrow=none;html=1;" parent="1" source="93" target="16" edge="1">
                    <mxGeometry width="50" height="50" relative="1" as="geometry">
                        <mxPoint x="382.5" y="630" as="sourcePoint"/>
                        <mxPoint x="462.5" y="630" as="targetPoint"/>
                    </mxGeometry>
                </mxCell>
                <mxCell id="96" value="" style="endArrow=none;html=1;" parent="1" source="92" target="16" edge="1">
                    <mxGeometry width="50" height="50" relative="1" as="geometry">
                        <mxPoint x="392.5" y="640" as="sourcePoint"/>
                        <mxPoint x="472.5" y="640" as="targetPoint"/>
                    </mxGeometry>
                </mxCell>
                <mxCell id="97" value="&lt;u&gt;id_roadie&lt;/u&gt;" style="ellipse;whiteSpace=wrap;html=1;" parent="1" vertex="1">
                    <mxGeometry x="502.5" y="825" width="100" height="60" as="geometry"/>
                </mxCell>
                <mxCell id="98" value="integrantes" style="ellipse;whiteSpace=wrap;html=1;" parent="1" vertex="1">
                    <mxGeometry x="512.5" y="950" width="100" height="60" as="geometry"/>
                </mxCell>
                <mxCell id="100" value="" style="endArrow=none;html=1;" parent="1" source="97" target="11" edge="1">
                    <mxGeometry width="50" height="50" relative="1" as="geometry">
                        <mxPoint x="638.0182338664131" y="727.3576451552171" as="sourcePoint"/>
                        <mxPoint x="656.9817661335469" y="752.6423548447292" as="targetPoint"/>
                    </mxGeometry>
                </mxCell>
                <mxCell id="101" value="" style="endArrow=none;html=1;" parent="1" source="98" target="11" edge="1">
                    <mxGeometry width="50" height="50" relative="1" as="geometry">
                        <mxPoint x="648.0182338664131" y="737.3576451552171" as="sourcePoint"/>
                        <mxPoint x="666.9817661335469" y="762.6423548447292" as="targetPoint"/>
                    </mxGeometry>
                </mxCell>
                <mxCell id="102" value="&lt;u&gt;id_banda&lt;/u&gt;" style="ellipse;whiteSpace=wrap;html=1;" parent="1" vertex="1">
                    <mxGeometry x="867.5" y="780" width="100" height="60" as="geometry"/>
                </mxCell>
                <mxCell id="103" value="integrantes" style="ellipse;whiteSpace=wrap;html=1;" parent="1" vertex="1">
                    <mxGeometry x="887.5" y="960" width="105" height="70" as="geometry"/>
                </mxCell>
                <mxCell id="104" value="genero" style="ellipse;whiteSpace=wrap;html=1;" parent="1" vertex="1">
                    <mxGeometry x="890" y="965" width="100" height="60" as="geometry"/>
                </mxCell>
                <mxCell id="105" value="integrantes" style="ellipse;whiteSpace=wrap;html=1;" parent="1" vertex="1">
                    <mxGeometry x="1027.5" y="980" width="105" height="70" as="geometry"/>
                </mxCell>
                <mxCell id="106" value="integrantes" style="ellipse;whiteSpace=wrap;html=1;" parent="1" vertex="1">
                    <mxGeometry x="1030" y="985" width="100" height="60" as="geometry"/>
                </mxCell>
                <mxCell id="109" value="nome" style="ellipse;whiteSpace=wrap;html=1;" parent="1" vertex="1">
                    <mxGeometry x="1007.5" y="780" width="100" height="60" as="geometry"/>
                </mxCell>
                <mxCell id="110" value="exigencias" style="ellipse;whiteSpace=wrap;html=1;" parent="1" vertex="1">
                    <mxGeometry x="1157.5" y="945" width="100" height="60" as="geometry"/>
                </mxCell>
                <mxCell id="111" value="" style="endArrow=none;html=1;" parent="1" source="10" target="109" edge="1">
                    <mxGeometry width="50" height="50" relative="1" as="geometry">
                        <mxPoint x="1227.5" y="910" as="sourcePoint"/>
                        <mxPoint x="1102.5" y="910" as="targetPoint"/>
                    </mxGeometry>
                </mxCell>
                <mxCell id="112" value="" style="endArrow=none;html=1;" parent="1" source="10" target="110" edge="1">
                    <mxGeometry width="50" height="50" relative="1" as="geometry">
                        <mxPoint x="1237.5" y="920" as="sourcePoint"/>
                        <mxPoint x="1207.5" y="960" as="targetPoint"/>
                    </mxGeometry>
                </mxCell>
                <mxCell id="113" value="" style="endArrow=none;html=1;" parent="1" source="10" target="106" edge="1">
                    <mxGeometry width="50" height="50" relative="1" as="geometry">
                        <mxPoint x="1247.5" y="930" as="sourcePoint"/>
                        <mxPoint x="1122.5" y="930" as="targetPoint"/>
                    </mxGeometry>
                </mxCell>
                <mxCell id="114" value="" style="endArrow=none;html=1;" parent="1" source="10" target="104" edge="1">
                    <mxGeometry width="50" height="50" relative="1" as="geometry">
                        <mxPoint x="1257.5" y="940" as="sourcePoint"/>
                        <mxPoint x="1132.5" y="940" as="targetPoint"/>
                    </mxGeometry>
                </mxCell>
                <mxCell id="115" value="" style="endArrow=none;html=1;" parent="1" source="102" target="10" edge="1">
                    <mxGeometry width="50" height="50" relative="1" as="geometry">
                        <mxPoint x="1267.5" y="950" as="sourcePoint"/>
                        <mxPoint x="1142.5" y="950" as="targetPoint"/>
                    </mxGeometry>
                </mxCell>
                <mxCell id="116" value="&lt;u&gt;data&lt;/u&gt;" style="ellipse;whiteSpace=wrap;html=1;" parent="1" vertex="1">
                    <mxGeometry x="1367.5" y="680" width="100" height="60" as="geometry"/>
                </mxCell>
                <mxCell id="117" value="integrantes" style="ellipse;whiteSpace=wrap;html=1;" parent="1" vertex="1">
                    <mxGeometry x="1362.5" y="770" width="105" height="70" as="geometry"/>
                </mxCell>
                <mxCell id="118" value="horarios" style="ellipse;whiteSpace=wrap;html=1;" parent="1" vertex="1">
                    <mxGeometry x="1365" y="775" width="100" height="60" as="geometry"/>
                </mxCell>
                <mxCell id="119" value="id_banda" style="ellipse;whiteSpace=wrap;html=1;" parent="1" vertex="1">
                    <mxGeometry x="1507.5" y="780" width="100" height="60" as="geometry"/>
                </mxCell>
                <mxCell id="120" value="" style="endArrow=none;html=1;" parent="1" source="118" target="119" edge="1">
                    <mxGeometry width="50" height="50" relative="1" as="geometry">
                        <mxPoint x="1277.5" y="660" as="sourcePoint"/>
                        <mxPoint x="1277.5" y="740" as="targetPoint"/>
                    </mxGeometry>
                </mxCell>
                <mxCell id="121" value="" style="endArrow=none;html=1;" parent="1" source="14" target="118" edge="1">
                    <mxGeometry width="50" height="50" relative="1" as="geometry">
                        <mxPoint x="1474.9263210232943" y="816.6280322072812" as="sourcePoint"/>
                        <mxPoint x="1427.5" y="800" as="targetPoint"/>
                    </mxGeometry>
                </mxCell>
                <mxCell id="122" value="" style="endArrow=none;html=1;" parent="1" source="116" target="14" edge="1">
                    <mxGeometry width="50" height="50" relative="1" as="geometry">
                        <mxPoint x="1484.9263210232943" y="826.6280322072812" as="sourcePoint"/>
                        <mxPoint x="1527.585877781768" y="828.2424604852736" as="targetPoint"/>
                    </mxGeometry>
                </mxCell>
                <mxCell id="123" value="&lt;u&gt;id_palco&lt;/u&gt;" style="ellipse;whiteSpace=wrap;html=1;" parent="1" vertex="1">
                    <mxGeometry x="892.5" y="670" width="100" height="60" as="geometry"/>
                </mxCell>
                <mxCell id="124" value="nome" style="ellipse;whiteSpace=wrap;html=1;" parent="1" vertex="1">
                    <mxGeometry x="1047.5" y="680" width="100" height="60" as="geometry"/>
                </mxCell>
                <mxCell id="125" value="tema" style="ellipse;whiteSpace=wrap;html=1;" parent="1" vertex="1">
                    <mxGeometry x="1092.5" y="490" width="100" height="60" as="geometry"/>
                </mxCell>
                <mxCell id="127" value="" style="endArrow=none;html=1;" parent="1" source="124" target="12" edge="1">
                    <mxGeometry width="50" height="50" relative="1" as="geometry">
                        <mxPoint x="1102.5" y="620" as="sourcePoint"/>
                        <mxPoint x="1227.5" y="620" as="targetPoint"/>
                    </mxGeometry>
                </mxCell>
                <mxCell id="128" value="" style="endArrow=none;html=1;" parent="1" source="123" target="12" edge="1">
                    <mxGeometry width="50" height="50" relative="1" as="geometry">
                        <mxPoint x="1112.5" y="630" as="sourcePoint"/>
                        <mxPoint x="1237.5" y="630" as="targetPoint"/>
                    </mxGeometry>
                </mxCell>
                <mxCell id="129" value="" style="endArrow=none;html=1;" parent="1" source="125" target="12" edge="1">
                    <mxGeometry width="50" height="50" relative="1" as="geometry">
                        <mxPoint x="1122.5" y="640" as="sourcePoint"/>
                        <mxPoint x="1247.5" y="640" as="targetPoint"/>
                    </mxGeometry>
                </mxCell>
                <mxCell id="130" value="&lt;u&gt;id_equipamentos&lt;/u&gt;" style="ellipse;whiteSpace=wrap;html=1;" vertex="1" parent="1">
                    <mxGeometry x="1042.5" y="150" width="100" height="60" as="geometry"/>
                </mxCell>
                <mxCell id="131" value="num_patrimonio" style="ellipse;whiteSpace=wrap;html=1;" vertex="1" parent="1">
                    <mxGeometry x="1137.5" y="290" width="100" height="60" as="geometry"/>
                </mxCell>
                <mxCell id="132" value="" style="endArrow=none;html=1;" edge="1" parent="1" source="131" target="13">
                    <mxGeometry width="50" height="50" relative="1" as="geometry">
                        <mxPoint x="1040" y="330" as="sourcePoint"/>
                        <mxPoint x="1040" y="420" as="targetPoint"/>
                    </mxGeometry>
                </mxCell>
                <mxCell id="133" value="" style="endArrow=none;html=1;" edge="1" parent="1" source="130" target="13">
                    <mxGeometry width="50" height="50" relative="1" as="geometry">
                        <mxPoint x="1050" y="340" as="sourcePoint"/>
                        <mxPoint x="1077.5" y="280" as="targetPoint"/>
                    </mxGeometry>
                </mxCell>
            </root>
        </mxGraphModel>
    </diagram>
</mxfile>